<svg width="38" height="37" viewBox="0 0 38 37" fill="none" xmlns="http://www.w3.org/2000/svg">
<path fill-rule="evenodd" clip-rule="evenodd" d="M17.9909 0.754311C17.6701 1.07511 17.5005 2.77026 17.5005 5.65831C17.5005 10.0413 17.4936 10.0719 16.5226 10.0719C14.874 10.0719 15.0146 11.0944 16.9206 12.9649L18.7265 14.7373L20.5324 12.9649C22.4384 11.0944 22.579 10.0719 20.9304 10.0719C19.9594 10.0719 19.9525 10.0413 19.9525 5.65831C19.9525 2.77026 19.7829 1.07511 19.4621 0.754311C18.8475 0.139676 18.6055 0.139676 17.9909 0.754311ZM8.76729 8.39638C5.70147 10.0744 4.77257 10.8451 2.74232 13.3931C1.42232 15.0503 0.340992 16.6138 0.339357 16.868C0.337723 17.1218 1.34795 18.0932 2.58416 19.0266L4.83183 20.7238V24.5477V28.372L11.4571 32.5911C15.1012 34.9119 18.3722 36.8106 18.7265 36.8106C19.0808 36.8106 22.3518 34.9119 25.9959 32.5911L32.6212 28.372V24.5636V20.7549L34.969 18.9706C36.2603 17.989 37.3813 16.8509 37.4602 16.441C37.5391 16.0315 37.4361 15.7998 37.2313 15.9265C37.0266 16.0532 35.8599 14.8697 34.6379 13.2967C32.7262 10.8349 31.8852 10.1483 28.5978 8.36655C25.0216 6.42783 24.7359 6.33997 24.1025 6.98607C23.4719 7.6289 23.5071 7.74088 24.6215 8.63954C25.2787 9.16958 26.5202 9.92071 27.38 10.3085C28.2399 10.6964 28.9366 11.1234 28.9289 11.2579C28.9133 11.5276 20.0902 17.244 19.1082 17.6208C18.7428 17.761 16.4421 16.5145 13.429 14.5444L8.36435 11.2317L10.5826 10.0208C13.5961 8.37595 14.1057 7.84018 13.431 7.02734C13.1417 6.67916 12.7898 6.398 12.6488 6.40331C12.5074 6.40822 10.7612 7.30524 8.76729 8.39638ZM4.85799 14.9428L3.58948 16.5444L7.93075 19.6715C10.3186 21.3916 12.4882 22.8816 12.7518 22.9825C13.0154 23.0839 13.9541 22.4259 14.838 21.5207C16.2238 20.1018 16.3628 19.801 15.8491 19.3348C15.1249 18.6784 6.66715 13.3412 6.35125 13.3412C6.22743 13.3412 5.55558 14.0621 4.85799 14.9428ZM26.2868 16.2375C23.8144 17.8149 21.6166 19.28 21.4029 19.4933C20.9182 19.9764 24.0106 23.2477 24.7012 22.9825C24.9648 22.8816 27.1344 21.3916 29.5223 19.6715L33.8635 16.5444L32.595 14.9428C31.8974 14.0621 31.2039 13.3474 31.0543 13.3551C30.9048 13.3629 28.7593 14.6596 26.2868 16.2375ZM0.368781 16.8488C0.388397 17.3249 0.485252 17.4218 0.615616 17.0961C0.733721 16.801 0.719009 16.4483 0.583331 16.3127C0.447654 16.177 0.351209 16.4181 0.368781 16.8488Z" fill="#EFB25F"/>
</svg>
