<svg width="38" height="40" viewBox="0 0 38 40" fill="none" xmlns="http://www.w3.org/2000/svg">
<path d="M1.76611 29.5816V10.1263C1.76611 9.67494 2.03193 9.26591 2.44441 9.08259L18.4347 1.97576C18.7302 1.84451 19.0671 1.84451 19.3625 1.97576L35.3529 9.08259C35.7654 9.26591 36.0311 9.67494 36.0311 10.1263V29.5816C36.0311 30.0329 35.7654 30.442 35.3529 30.6253L19.3625 37.7321C19.0671 37.8632 18.7302 37.8632 18.4347 37.7321L2.44441 30.6253C2.03193 30.442 1.76611 30.0329 1.76611 29.5816Z" stroke="#ABABAB" stroke-width="2.85542" stroke-linecap="round" stroke-linejoin="round"/>
<path d="M10.3325 5.57678L26.7868 12.8898C27.1993 13.0731 27.465 13.4821 27.465 13.9335V20.8057" stroke="#ABABAB" stroke-width="2.85542" stroke-linecap="round" stroke-linejoin="round"/>
</svg>
