<svg width="39" height="28" viewBox="0 0 39 28" fill="none" xmlns="http://www.w3.org/2000/svg">
<path d="M22.4411 11.4932C22.4411 14.4542 20.0407 16.8546 17.0797 16.8546C14.1187 16.8546 11.7183 14.4542 11.7183 11.4932C11.7183 8.53211 14.1187 6.13171 17.0797 6.13171C20.0407 6.13171 22.4411 8.53211 22.4411 11.4932ZM19.7604 11.4932C19.7604 10.0126 18.5602 8.81243 17.0797 8.81243C15.5992 8.81243 14.399 10.0126 14.399 11.4932C14.399 12.9737 15.5992 14.1739 17.0797 14.1739C18.5602 14.1739 19.7604 12.9737 19.7604 11.4932Z" fill="#EFB25F"/>
<path d="M0.995117 4.12116C0.995117 2.2705 2.49536 0.770264 4.34602 0.770264H29.8129C31.6636 0.770264 33.1638 2.2705 33.1638 4.12116V18.8651C33.1638 20.7159 31.6636 22.216 29.8129 22.216H4.34602C2.49536 22.216 0.995117 20.7159 0.995117 18.8651V4.12116ZM4.34602 3.45098C3.97589 3.45098 3.67584 3.75104 3.67584 4.12116V6.1317H5.0162C5.75645 6.1317 6.35656 5.5316 6.35656 4.79134V3.45098H4.34602ZM3.67584 18.8651C3.67584 19.2353 3.97589 19.5353 4.34602 19.5353H6.35656V18.1949C6.35656 17.4547 5.75645 16.8546 5.0162 16.8546H3.67584V18.8651ZM9.03728 18.1949V19.5353H25.1216V18.1949C25.1216 15.9742 26.922 14.1739 29.1427 14.1739H30.483V8.81242H29.1427C26.922 8.81242 25.1216 7.01213 25.1216 4.79134V3.45098H9.03728V4.79134C9.03728 7.01213 7.23699 8.81242 5.0162 8.81242H3.67584V14.1739H5.0162C7.23699 14.1739 9.03728 15.9742 9.03728 18.1949ZM27.8023 19.5353H29.8129C30.1831 19.5353 30.483 19.2353 30.483 18.8651V16.8546H29.1427C28.4025 16.8546 27.8023 17.4547 27.8023 18.1949V19.5353ZM30.483 6.1317V4.12116C30.483 3.75104 30.1831 3.45098 29.8129 3.45098H27.8023V4.79134C27.8023 5.5316 28.4025 6.1317 29.1427 6.1317H30.483Z" fill="#EFB25F"/>
<path d="M10.378 27.5776C8.59105 27.5776 7.07633 26.412 6.55273 24.7995C6.92468 24.8636 7.30709 24.8968 7.69729 24.8968H29.8132C33.1443 24.8968 35.8449 22.1963 35.8449 18.8652V6.3606C37.4066 6.91261 38.5256 8.40207 38.5256 10.1529V18.8652C38.5256 23.6768 34.6249 27.5776 29.8132 27.5776H10.378Z" fill="#EFB25F"/>
</svg>
