<svg width="32" height="33" viewBox="0 0 32 33" fill="none" xmlns="http://www.w3.org/2000/svg">
<path d="M30.8529 7.37292V10.915C30.8529 13.2277 29.3892 14.6913 27.0766 14.6913H22.0708V4.46019C22.0708 2.8355 23.4028 1.51819 25.0274 1.51819C26.6229 1.53283 28.0865 2.17685 29.1404 3.2307C30.1942 4.29919 30.8529 5.76287 30.8529 7.37292Z" stroke="#EFB25F" stroke-width="2.19552" stroke-miterlimit="10" stroke-linecap="round" stroke-linejoin="round"/>
<path d="M11.8257 17.6331H16.2167" stroke="#EFB25F" stroke-width="2.19552" stroke-linecap="round" stroke-linejoin="round"/>
<path d="M11.8257 11.7783H16.2167" stroke="#EFB25F" stroke-width="2.19552" stroke-linecap="round" stroke-linejoin="round"/>
<path d="M1.57959 14.6915V29.3283C1.57959 30.5432 2.95545 31.2311 3.92148 30.4992L6.42438 28.6257C7.00985 28.1866 7.82952 28.2452 8.35644 28.7721L10.7862 31.2164C11.357 31.7873 12.2938 31.7873 12.8646 31.2164L15.3236 28.7575C15.8359 28.2452 16.6555 28.1866 17.2264 28.6257L19.7293 30.4992C20.6953 31.2164 22.0712 30.5285 22.0712 29.3283V4.44568C22.0712 2.83563 23.3885 1.51831 24.9985 1.51831H8.89801H7.43432C3.04327 1.51831 1.57959 4.1383 1.57959 7.37304V8.83673" stroke="#EFB25F" stroke-width="2.19552" stroke-miterlimit="10" stroke-linecap="round" stroke-linejoin="round"/>
<path d="M7.42773 17.6189H7.44355" stroke="#EFB25F" stroke-width="2.92737" stroke-linecap="round" stroke-linejoin="round"/>
<path d="M7.42578 11.7639H7.44158" stroke="#EFB25F" stroke-width="2.92737" stroke-linecap="round" stroke-linejoin="round"/>
</svg>
