<svg width="39" height="34" viewBox="0 0 39 34" fill="none" xmlns="http://www.w3.org/2000/svg">
<path d="M34.4771 7.45202C34.2428 7.11751 33.9312 6.84439 33.569 6.65577C33.2067 6.46715 32.8043 6.36858 32.3958 6.3684H26.0708V2.55762C26.07 1.88406 25.8021 1.23831 25.3258 0.762028C24.8496 0.285751 24.2038 0.0178463 23.5303 0.0170898H3.20605C2.5325 0.0178463 1.88674 0.285751 1.41047 0.762028C0.934188 1.23831 0.666284 1.88406 0.665527 2.55762V28.598H4.87978C5.10297 29.8446 5.75745 30.9731 6.72868 31.7859C7.69991 32.5987 8.92604 33.044 10.1925 33.044C11.459 33.044 12.6851 32.5987 13.6563 31.7859C14.6275 30.9731 15.282 29.8446 15.5052 28.598H23.9337C24.1569 29.8446 24.8114 30.9731 25.7826 31.7859C26.7539 32.5987 27.98 33.044 29.2464 33.044C30.5129 33.044 31.739 32.5987 32.7103 31.7859C33.6815 30.9731 34.336 29.8446 34.5592 28.598H38.7734V14.1902C38.774 13.7992 38.6537 13.4175 38.429 13.0975L34.4771 7.45202ZM3.20447 2.55762H23.5303V16.5305H3.20605L3.20447 2.55762ZM10.1925 30.5034C9.62722 30.5034 9.07464 30.3358 8.60463 30.0217C8.13462 29.7077 7.76829 29.2613 7.55197 28.7391C7.33564 28.2168 7.27904 27.6421 7.38932 27.0877C7.4996 26.5333 7.77181 26.024 8.17152 25.6243C8.57123 25.2246 9.0805 24.9524 9.63491 24.8421C10.1893 24.7319 10.764 24.7885 11.2862 25.0048C11.8085 25.2211 12.2549 25.5874 12.5689 26.0574C12.883 26.5274 13.0506 27.08 13.0506 27.6453C13.0497 28.4031 12.7484 29.1295 12.2125 29.6654C11.6767 30.2012 10.9503 30.5026 10.1925 30.5034ZM29.2464 30.5034C28.6812 30.5034 28.1286 30.3358 27.6586 30.0217C27.1886 29.7077 26.8222 29.2613 26.6059 28.7391C26.3896 28.2168 26.333 27.6421 26.4433 27.0877C26.5535 26.5333 26.8258 26.024 27.2255 25.6243C27.6252 25.2246 28.1344 24.9524 28.6889 24.8421C29.2433 24.7319 29.8179 24.7885 30.3402 25.0048C30.8624 25.2211 31.3088 25.5874 31.6229 26.0574C31.9369 26.5274 32.1045 27.08 32.1045 27.6453C32.1037 28.4031 31.8023 29.1295 31.2665 29.6654C30.7307 30.2012 30.0042 30.5026 29.2464 30.5034ZM36.2329 26.0575H34.4064C34.0669 24.9539 33.3826 23.9883 32.4539 23.3024C31.5252 22.6164 30.401 22.2463 29.2464 22.2463C28.0919 22.2463 26.9677 22.6164 26.039 23.3024C25.1103 23.9883 24.426 24.9539 24.0865 26.0575H15.3525C15.013 24.9539 14.3286 23.9883 13.3999 23.3024C12.4712 22.6164 11.3471 22.2463 10.1925 22.2463C9.03793 22.2463 7.91377 22.6164 6.98506 23.3024C6.05635 23.9883 5.37202 24.9539 5.03253 26.0575H3.20605V19.071H36.2329V26.0575ZM36.2329 16.5305H26.0708V8.90893H32.3958L36.2329 14.3904V16.5305Z" fill="#ABABAB"/>
</svg>
