<svg width="40" height="39" viewBox="0 0 40 39" fill="none" xmlns="http://www.w3.org/2000/svg">
<path d="M17.0664 2.74438C18.2278 0.39103 21.5836 0.391038 22.7451 2.74438L27.1452 11.66L36.9843 13.0897C39.5814 13.4671 40.6184 16.6586 38.7388 18.4905L31.6194 25.4303L33.3001 35.2295C33.7438 37.816 31.0289 39.7886 28.706 38.5676L19.9057 33.9408L11.1055 38.5676C8.78255 39.7886 6.06767 37.816 6.51131 35.2295L8.192 25.4303L1.07243 18.4905C-0.806819 16.6586 0.230189 13.4671 2.82729 13.0897L12.6663 11.66L17.0664 2.74438ZM19.9057 5.93433L16.0313 13.7848C15.5701 14.7193 14.6785 15.3671 13.6472 15.5169L4.98368 16.7758L11.2527 22.8866C11.9989 23.614 12.3394 24.6621 12.1633 25.6892L10.6834 34.3178L18.4323 30.2439C19.3547 29.759 20.4567 29.759 21.3791 30.2439L29.1281 34.3178L27.6482 25.6892C27.472 24.6621 27.8125 23.614 28.5588 22.8866L34.8278 16.7758L26.1642 15.5169C25.1329 15.3671 24.2414 14.7193 23.7802 13.7848L19.9057 5.93433Z" fill="#EFB25F"/>
</svg>
